%TF.GenerationSoftware,KiCad,Pcbnew,10.0.4*%
%TF.CreationDate,2026-07-02T08:36:38-04:00*%
%TF.ProjectId,nameCard,6e616d65-4361-4726-942e-6b696361645f,rev?*%
%TF.SameCoordinates,Original*%
%TF.FileFunction,Legend,Top*%
%TF.FilePolarity,Positive*%
%FSLAX46Y46*%
G04 Gerber Fmt 4.6, Leading zero omitted, Abs format (unit mm)*
G04 Created by KiCad (PCBNEW 10.0.4) date 2026-07-02 08:36:38*
%MOMM*%
%LPD*%
G01*
G04 APERTURE LIST*
%ADD10C,0.150000*%
%ADD11C,0.120000*%
G04 APERTURE END LIST*
D10*
X171079104Y-105016666D02*
X171079104Y-104540476D01*
X171364819Y-105111904D02*
X170364819Y-104778571D01*
X170364819Y-104778571D02*
X171364819Y-104445238D01*
X170841009Y-104111904D02*
X170841009Y-103778571D01*
X171364819Y-103635714D02*
X171364819Y-104111904D01*
X171364819Y-104111904D02*
X170364819Y-104111904D01*
X170364819Y-104111904D02*
X170364819Y-103635714D01*
X171364819Y-102683333D02*
X171364819Y-103254761D01*
X171364819Y-102969047D02*
X170364819Y-102969047D01*
X170364819Y-102969047D02*
X170507676Y-103064285D01*
X170507676Y-103064285D02*
X170602914Y-103159523D01*
X170602914Y-103159523D02*
X170650533Y-103254761D01*
X143333333Y-111669104D02*
X143809523Y-111669104D01*
X143238095Y-111954819D02*
X143571428Y-110954819D01*
X143571428Y-110954819D02*
X143904761Y-111954819D01*
X144238095Y-111431009D02*
X144571428Y-111431009D01*
X144714285Y-111954819D02*
X144238095Y-111954819D01*
X144238095Y-111954819D02*
X144238095Y-110954819D01*
X144238095Y-110954819D02*
X144714285Y-110954819D01*
X145095238Y-111050057D02*
X145142857Y-111002438D01*
X145142857Y-111002438D02*
X145238095Y-110954819D01*
X145238095Y-110954819D02*
X145476190Y-110954819D01*
X145476190Y-110954819D02*
X145571428Y-111002438D01*
X145571428Y-111002438D02*
X145619047Y-111050057D01*
X145619047Y-111050057D02*
X145666666Y-111145295D01*
X145666666Y-111145295D02*
X145666666Y-111240533D01*
X145666666Y-111240533D02*
X145619047Y-111383390D01*
X145619047Y-111383390D02*
X145047619Y-111954819D01*
X145047619Y-111954819D02*
X145666666Y-111954819D01*
X135604819Y-97166666D02*
X135128628Y-97499999D01*
X135604819Y-97738094D02*
X134604819Y-97738094D01*
X134604819Y-97738094D02*
X134604819Y-97357142D01*
X134604819Y-97357142D02*
X134652438Y-97261904D01*
X134652438Y-97261904D02*
X134700057Y-97214285D01*
X134700057Y-97214285D02*
X134795295Y-97166666D01*
X134795295Y-97166666D02*
X134938152Y-97166666D01*
X134938152Y-97166666D02*
X135033390Y-97214285D01*
X135033390Y-97214285D02*
X135081009Y-97261904D01*
X135081009Y-97261904D02*
X135128628Y-97357142D01*
X135128628Y-97357142D02*
X135128628Y-97738094D01*
X135604819Y-96214285D02*
X135604819Y-96785713D01*
X135604819Y-96499999D02*
X134604819Y-96499999D01*
X134604819Y-96499999D02*
X134747676Y-96595237D01*
X134747676Y-96595237D02*
X134842914Y-96690475D01*
X134842914Y-96690475D02*
X134890533Y-96785713D01*
X150039809Y-95239628D02*
X150039809Y-95715819D01*
X149706476Y-94715819D02*
X150039809Y-95239628D01*
X150039809Y-95239628D02*
X150373142Y-94715819D01*
X151230285Y-95715819D02*
X150658857Y-95715819D01*
X150944571Y-95715819D02*
X150944571Y-94715819D01*
X150944571Y-94715819D02*
X150849333Y-94858676D01*
X150849333Y-94858676D02*
X150754095Y-94953914D01*
X150754095Y-94953914D02*
X150658857Y-95001533D01*
X137954819Y-105666666D02*
X137478628Y-105999999D01*
X137954819Y-106238094D02*
X136954819Y-106238094D01*
X136954819Y-106238094D02*
X136954819Y-105857142D01*
X136954819Y-105857142D02*
X137002438Y-105761904D01*
X137002438Y-105761904D02*
X137050057Y-105714285D01*
X137050057Y-105714285D02*
X137145295Y-105666666D01*
X137145295Y-105666666D02*
X137288152Y-105666666D01*
X137288152Y-105666666D02*
X137383390Y-105714285D01*
X137383390Y-105714285D02*
X137431009Y-105761904D01*
X137431009Y-105761904D02*
X137478628Y-105857142D01*
X137478628Y-105857142D02*
X137478628Y-106238094D01*
X136954819Y-104809523D02*
X136954819Y-104999999D01*
X136954819Y-104999999D02*
X137002438Y-105095237D01*
X137002438Y-105095237D02*
X137050057Y-105142856D01*
X137050057Y-105142856D02*
X137192914Y-105238094D01*
X137192914Y-105238094D02*
X137383390Y-105285713D01*
X137383390Y-105285713D02*
X137764342Y-105285713D01*
X137764342Y-105285713D02*
X137859580Y-105238094D01*
X137859580Y-105238094D02*
X137907200Y-105190475D01*
X137907200Y-105190475D02*
X137954819Y-105095237D01*
X137954819Y-105095237D02*
X137954819Y-104904761D01*
X137954819Y-104904761D02*
X137907200Y-104809523D01*
X137907200Y-104809523D02*
X137859580Y-104761904D01*
X137859580Y-104761904D02*
X137764342Y-104714285D01*
X137764342Y-104714285D02*
X137526247Y-104714285D01*
X137526247Y-104714285D02*
X137431009Y-104761904D01*
X137431009Y-104761904D02*
X137383390Y-104809523D01*
X137383390Y-104809523D02*
X137335771Y-104904761D01*
X137335771Y-104904761D02*
X137335771Y-105095237D01*
X137335771Y-105095237D02*
X137383390Y-105190475D01*
X137383390Y-105190475D02*
X137431009Y-105238094D01*
X137431009Y-105238094D02*
X137526247Y-105285713D01*
X141333333Y-105454819D02*
X141000000Y-104978628D01*
X140761905Y-105454819D02*
X140761905Y-104454819D01*
X140761905Y-104454819D02*
X141142857Y-104454819D01*
X141142857Y-104454819D02*
X141238095Y-104502438D01*
X141238095Y-104502438D02*
X141285714Y-104550057D01*
X141285714Y-104550057D02*
X141333333Y-104645295D01*
X141333333Y-104645295D02*
X141333333Y-104788152D01*
X141333333Y-104788152D02*
X141285714Y-104883390D01*
X141285714Y-104883390D02*
X141238095Y-104931009D01*
X141238095Y-104931009D02*
X141142857Y-104978628D01*
X141142857Y-104978628D02*
X140761905Y-104978628D01*
X142238095Y-104454819D02*
X141761905Y-104454819D01*
X141761905Y-104454819D02*
X141714286Y-104931009D01*
X141714286Y-104931009D02*
X141761905Y-104883390D01*
X141761905Y-104883390D02*
X141857143Y-104835771D01*
X141857143Y-104835771D02*
X142095238Y-104835771D01*
X142095238Y-104835771D02*
X142190476Y-104883390D01*
X142190476Y-104883390D02*
X142238095Y-104931009D01*
X142238095Y-104931009D02*
X142285714Y-105026247D01*
X142285714Y-105026247D02*
X142285714Y-105264342D01*
X142285714Y-105264342D02*
X142238095Y-105359580D01*
X142238095Y-105359580D02*
X142190476Y-105407200D01*
X142190476Y-105407200D02*
X142095238Y-105454819D01*
X142095238Y-105454819D02*
X141857143Y-105454819D01*
X141857143Y-105454819D02*
X141761905Y-105407200D01*
X141761905Y-105407200D02*
X141714286Y-105359580D01*
X145104819Y-97166666D02*
X144628628Y-97499999D01*
X145104819Y-97738094D02*
X144104819Y-97738094D01*
X144104819Y-97738094D02*
X144104819Y-97357142D01*
X144104819Y-97357142D02*
X144152438Y-97261904D01*
X144152438Y-97261904D02*
X144200057Y-97214285D01*
X144200057Y-97214285D02*
X144295295Y-97166666D01*
X144295295Y-97166666D02*
X144438152Y-97166666D01*
X144438152Y-97166666D02*
X144533390Y-97214285D01*
X144533390Y-97214285D02*
X144581009Y-97261904D01*
X144581009Y-97261904D02*
X144628628Y-97357142D01*
X144628628Y-97357142D02*
X144628628Y-97738094D01*
X144438152Y-96309523D02*
X145104819Y-96309523D01*
X144057200Y-96547618D02*
X144771485Y-96785713D01*
X144771485Y-96785713D02*
X144771485Y-96166666D01*
X144833333Y-105104819D02*
X144500000Y-104628628D01*
X144261905Y-105104819D02*
X144261905Y-104104819D01*
X144261905Y-104104819D02*
X144642857Y-104104819D01*
X144642857Y-104104819D02*
X144738095Y-104152438D01*
X144738095Y-104152438D02*
X144785714Y-104200057D01*
X144785714Y-104200057D02*
X144833333Y-104295295D01*
X144833333Y-104295295D02*
X144833333Y-104438152D01*
X144833333Y-104438152D02*
X144785714Y-104533390D01*
X144785714Y-104533390D02*
X144738095Y-104581009D01*
X144738095Y-104581009D02*
X144642857Y-104628628D01*
X144642857Y-104628628D02*
X144261905Y-104628628D01*
X145166667Y-104104819D02*
X145785714Y-104104819D01*
X145785714Y-104104819D02*
X145452381Y-104485771D01*
X145452381Y-104485771D02*
X145595238Y-104485771D01*
X145595238Y-104485771D02*
X145690476Y-104533390D01*
X145690476Y-104533390D02*
X145738095Y-104581009D01*
X145738095Y-104581009D02*
X145785714Y-104676247D01*
X145785714Y-104676247D02*
X145785714Y-104914342D01*
X145785714Y-104914342D02*
X145738095Y-105009580D01*
X145738095Y-105009580D02*
X145690476Y-105057200D01*
X145690476Y-105057200D02*
X145595238Y-105104819D01*
X145595238Y-105104819D02*
X145309524Y-105104819D01*
X145309524Y-105104819D02*
X145214286Y-105057200D01*
X145214286Y-105057200D02*
X145166667Y-105009580D01*
X149104819Y-95666666D02*
X148628628Y-95999999D01*
X149104819Y-96238094D02*
X148104819Y-96238094D01*
X148104819Y-96238094D02*
X148104819Y-95857142D01*
X148104819Y-95857142D02*
X148152438Y-95761904D01*
X148152438Y-95761904D02*
X148200057Y-95714285D01*
X148200057Y-95714285D02*
X148295295Y-95666666D01*
X148295295Y-95666666D02*
X148438152Y-95666666D01*
X148438152Y-95666666D02*
X148533390Y-95714285D01*
X148533390Y-95714285D02*
X148581009Y-95761904D01*
X148581009Y-95761904D02*
X148628628Y-95857142D01*
X148628628Y-95857142D02*
X148628628Y-96238094D01*
X148200057Y-95285713D02*
X148152438Y-95238094D01*
X148152438Y-95238094D02*
X148104819Y-95142856D01*
X148104819Y-95142856D02*
X148104819Y-94904761D01*
X148104819Y-94904761D02*
X148152438Y-94809523D01*
X148152438Y-94809523D02*
X148200057Y-94761904D01*
X148200057Y-94761904D02*
X148295295Y-94714285D01*
X148295295Y-94714285D02*
X148390533Y-94714285D01*
X148390533Y-94714285D02*
X148533390Y-94761904D01*
X148533390Y-94761904D02*
X149104819Y-95333332D01*
X149104819Y-95333332D02*
X149104819Y-94714285D01*
X140904761Y-98150057D02*
X140809523Y-98102438D01*
X140809523Y-98102438D02*
X140714285Y-98007200D01*
X140714285Y-98007200D02*
X140571428Y-97864342D01*
X140571428Y-97864342D02*
X140476190Y-97816723D01*
X140476190Y-97816723D02*
X140380952Y-97816723D01*
X140428571Y-98054819D02*
X140333333Y-98007200D01*
X140333333Y-98007200D02*
X140238095Y-97911961D01*
X140238095Y-97911961D02*
X140190476Y-97721485D01*
X140190476Y-97721485D02*
X140190476Y-97388152D01*
X140190476Y-97388152D02*
X140238095Y-97197676D01*
X140238095Y-97197676D02*
X140333333Y-97102438D01*
X140333333Y-97102438D02*
X140428571Y-97054819D01*
X140428571Y-97054819D02*
X140619047Y-97054819D01*
X140619047Y-97054819D02*
X140714285Y-97102438D01*
X140714285Y-97102438D02*
X140809523Y-97197676D01*
X140809523Y-97197676D02*
X140857142Y-97388152D01*
X140857142Y-97388152D02*
X140857142Y-97721485D01*
X140857142Y-97721485D02*
X140809523Y-97911961D01*
X140809523Y-97911961D02*
X140714285Y-98007200D01*
X140714285Y-98007200D02*
X140619047Y-98054819D01*
X140619047Y-98054819D02*
X140428571Y-98054819D01*
X141809523Y-98054819D02*
X141238095Y-98054819D01*
X141523809Y-98054819D02*
X141523809Y-97054819D01*
X141523809Y-97054819D02*
X141428571Y-97197676D01*
X141428571Y-97197676D02*
X141333333Y-97292914D01*
X141333333Y-97292914D02*
X141238095Y-97340533D01*
X135954819Y-102738094D02*
X134954819Y-102738094D01*
X134954819Y-102738094D02*
X134954819Y-102499999D01*
X134954819Y-102499999D02*
X135002438Y-102357142D01*
X135002438Y-102357142D02*
X135097676Y-102261904D01*
X135097676Y-102261904D02*
X135192914Y-102214285D01*
X135192914Y-102214285D02*
X135383390Y-102166666D01*
X135383390Y-102166666D02*
X135526247Y-102166666D01*
X135526247Y-102166666D02*
X135716723Y-102214285D01*
X135716723Y-102214285D02*
X135811961Y-102261904D01*
X135811961Y-102261904D02*
X135907200Y-102357142D01*
X135907200Y-102357142D02*
X135954819Y-102499999D01*
X135954819Y-102499999D02*
X135954819Y-102738094D01*
X135954819Y-101214285D02*
X135954819Y-101785713D01*
X135954819Y-101499999D02*
X134954819Y-101499999D01*
X134954819Y-101499999D02*
X135097676Y-101595237D01*
X135097676Y-101595237D02*
X135192914Y-101690475D01*
X135192914Y-101690475D02*
X135240533Y-101785713D01*
X145333333Y-99209580D02*
X145285714Y-99257200D01*
X145285714Y-99257200D02*
X145142857Y-99304819D01*
X145142857Y-99304819D02*
X145047619Y-99304819D01*
X145047619Y-99304819D02*
X144904762Y-99257200D01*
X144904762Y-99257200D02*
X144809524Y-99161961D01*
X144809524Y-99161961D02*
X144761905Y-99066723D01*
X144761905Y-99066723D02*
X144714286Y-98876247D01*
X144714286Y-98876247D02*
X144714286Y-98733390D01*
X144714286Y-98733390D02*
X144761905Y-98542914D01*
X144761905Y-98542914D02*
X144809524Y-98447676D01*
X144809524Y-98447676D02*
X144904762Y-98352438D01*
X144904762Y-98352438D02*
X145047619Y-98304819D01*
X145047619Y-98304819D02*
X145142857Y-98304819D01*
X145142857Y-98304819D02*
X145285714Y-98352438D01*
X145285714Y-98352438D02*
X145333333Y-98400057D01*
X145714286Y-98400057D02*
X145761905Y-98352438D01*
X145761905Y-98352438D02*
X145857143Y-98304819D01*
X145857143Y-98304819D02*
X146095238Y-98304819D01*
X146095238Y-98304819D02*
X146190476Y-98352438D01*
X146190476Y-98352438D02*
X146238095Y-98400057D01*
X146238095Y-98400057D02*
X146285714Y-98495295D01*
X146285714Y-98495295D02*
X146285714Y-98590533D01*
X146285714Y-98590533D02*
X146238095Y-98733390D01*
X146238095Y-98733390D02*
X145666667Y-99304819D01*
X145666667Y-99304819D02*
X146285714Y-99304819D01*
X136833333Y-97209580D02*
X136785714Y-97257200D01*
X136785714Y-97257200D02*
X136642857Y-97304819D01*
X136642857Y-97304819D02*
X136547619Y-97304819D01*
X136547619Y-97304819D02*
X136404762Y-97257200D01*
X136404762Y-97257200D02*
X136309524Y-97161961D01*
X136309524Y-97161961D02*
X136261905Y-97066723D01*
X136261905Y-97066723D02*
X136214286Y-96876247D01*
X136214286Y-96876247D02*
X136214286Y-96733390D01*
X136214286Y-96733390D02*
X136261905Y-96542914D01*
X136261905Y-96542914D02*
X136309524Y-96447676D01*
X136309524Y-96447676D02*
X136404762Y-96352438D01*
X136404762Y-96352438D02*
X136547619Y-96304819D01*
X136547619Y-96304819D02*
X136642857Y-96304819D01*
X136642857Y-96304819D02*
X136785714Y-96352438D01*
X136785714Y-96352438D02*
X136833333Y-96400057D01*
X137785714Y-97304819D02*
X137214286Y-97304819D01*
X137500000Y-97304819D02*
X137500000Y-96304819D01*
X137500000Y-96304819D02*
X137404762Y-96447676D01*
X137404762Y-96447676D02*
X137309524Y-96542914D01*
X137309524Y-96542914D02*
X137214286Y-96590533D01*
%TO.C,AE2*%
D11*
X143100000Y-109360000D02*
X143740000Y-109360000D01*
X143740000Y-109360000D02*
X143740000Y-109990000D01*
X145900000Y-109360000D02*
X145260000Y-109360000D01*
X143150000Y-106640000D02*
X145850000Y-106640000D01*
%TO.C,R1*%
X132765000Y-96772936D02*
X132765000Y-97227064D01*
X134235000Y-96772936D02*
X134235000Y-97227064D01*
%TO.C,Y1*%
X148484000Y-96259000D02*
X155088000Y-96259000D01*
X148484000Y-97499000D02*
X148484000Y-96259000D01*
X148992000Y-108977000D02*
X148992000Y-110501000D01*
X148992000Y-110509000D02*
X162200000Y-110509000D01*
X159142000Y-96259000D02*
X162190000Y-96259000D01*
X162190000Y-97783000D02*
X162190000Y-96259000D01*
X162200000Y-110501000D02*
X162200000Y-108977000D01*
X148476000Y-98809000D02*
X147976000Y-98809000D01*
X148476000Y-98309000D01*
X148476000Y-98809000D01*
G36*
X148476000Y-98809000D02*
G01*
X147976000Y-98809000D01*
X148476000Y-98309000D01*
X148476000Y-98809000D01*
G37*
%TO.C,R6*%
X138235000Y-102272936D02*
X138235000Y-102727064D01*
X136765000Y-102272936D02*
X136765000Y-102727064D01*
%TO.C,R5*%
X141227064Y-103735000D02*
X140772936Y-103735000D01*
X141227064Y-102265000D02*
X140772936Y-102265000D01*
%TO.C,R4*%
X143735000Y-96772936D02*
X143735000Y-97227064D01*
X142265000Y-96772936D02*
X142265000Y-97227064D01*
%TO.C,R3*%
X145227064Y-103735000D02*
X144772936Y-103735000D01*
X145227064Y-102265000D02*
X144772936Y-102265000D01*
%TO.C,R2*%
X147735000Y-96272936D02*
X147735000Y-96727064D01*
X146265000Y-96272936D02*
X146265000Y-96727064D01*
%TO.C,Q1*%
X140240000Y-98440000D02*
X141760000Y-98440000D01*
X140240000Y-98490000D02*
X140240000Y-98440000D01*
X140240000Y-100390000D02*
X140240000Y-99610000D01*
X140240000Y-101560000D02*
X140240000Y-101510000D01*
X141760000Y-98440000D02*
X141760000Y-99440000D01*
X141760000Y-100560000D02*
X141760000Y-101560000D01*
X141760000Y-101560000D02*
X140240000Y-101560000D01*
X139700000Y-99620000D02*
X139940000Y-99950000D01*
X139460000Y-99950000D01*
X139700000Y-99620000D01*
G36*
X139940000Y-99950000D02*
G01*
X139460000Y-99950000D01*
X139700000Y-99620000D01*
X139940000Y-99950000D01*
G37*
%TO.C,D1*%
X134500000Y-99640000D02*
X132500000Y-99640000D01*
X134500000Y-99640000D02*
X134500000Y-103650000D01*
X132500000Y-99640000D02*
X132500000Y-103650000D01*
%TO.C,C2*%
X145272936Y-99765000D02*
X145727064Y-99765000D01*
X145272936Y-101235000D02*
X145727064Y-101235000D01*
%TO.C,C1*%
X136772936Y-97765000D02*
X137227064Y-97765000D01*
X136772936Y-99235000D02*
X137227064Y-99235000D01*
%TD*%
M02*
