M48
; DRILL file KiCad 10.0.4 date 2026-07-02T08:36:40
; FORMAT={-:-/ absolute / metric / decimal}
; #@! TF.CreationDate,2026-07-02T08:36:40-04:00
; #@! TF.GenerationSoftware,Kicad,Pcbnew,10.0.4
; #@! TF.FileFunction,Plated,1,2,PTH
FMAT,2
METRIC
; #@! TA.AperFunction,Plated,PTH,ComponentDrill
T1C0.300
; #@! TA.AperFunction,Plated,PTH,ComponentDrill
T2C0.508
%
G90
G05
T1
X164.5Y-110.5
T2
X149.5Y-98.69
X149.5Y-106.31
X150.897Y-97.293
X150.897Y-99.96
X150.897Y-105.04
X150.897Y-107.58
X150.897Y-109.485
X152.04Y-101.23
X152.04Y-103.77
X152.167Y-98.69
X152.167Y-108.088
X153.437Y-97.293
X153.437Y-109.485
X154.707Y-98.69
X154.707Y-108.088
X155.596Y-103.389
X155.977Y-99.833
X155.977Y-109.485
X157.247Y-108.088
X158.517Y-99.833
X158.517Y-109.485
X159.152Y-102.881
X159.152Y-105.421
X159.787Y-108.088
X160.295Y-98.69
X160.295Y-101.611
X160.295Y-106.691
X161.057Y-97.293
X161.057Y-109.485
X161.692Y-100.341
X161.692Y-107.961
M30
