%TF.GenerationSoftware,KiCad,Pcbnew,10.0.4*%
%TF.CreationDate,2026-07-02T08:36:38-04:00*%
%TF.ProjectId,nameCard,6e616d65-4361-4726-942e-6b696361645f,rev?*%
%TF.SameCoordinates,Original*%
%TF.FileFunction,Legend,Bot*%
%TF.FilePolarity,Positive*%
%FSLAX46Y46*%
G04 Gerber Fmt 4.6, Leading zero omitted, Abs format (unit mm)*
G04 Created by KiCad (PCBNEW 10.0.4) date 2026-07-02 08:36:38*
%MOMM*%
%LPD*%
G01*
G04 APERTURE LIST*
%ADD10C,0.150000*%
%ADD11C,0.000000*%
G04 APERTURE END LIST*
D10*
G36*
X151074040Y-101007257D02*
G01*
X151056579Y-100712773D01*
X151007394Y-100461611D01*
X150930088Y-100247317D01*
X150826555Y-100064433D01*
X150696868Y-99908714D01*
X150514077Y-99757137D01*
X150316316Y-99650795D01*
X150100170Y-99586532D01*
X149860824Y-99564515D01*
X149619263Y-99585201D01*
X149408324Y-99644603D01*
X149222396Y-99741031D01*
X149057388Y-99875924D01*
X148941079Y-100015025D01*
X148856886Y-100166239D01*
X148802761Y-100331930D01*
X148778768Y-100515413D01*
X149172243Y-100515413D01*
X149202319Y-100337164D01*
X149267811Y-100185983D01*
X149368980Y-100056359D01*
X149464229Y-99979392D01*
X149575669Y-99923419D01*
X149706463Y-99888327D01*
X149860824Y-99875924D01*
X150012666Y-99889677D01*
X150148777Y-99929674D01*
X150272295Y-99995584D01*
X150385458Y-100089148D01*
X150484886Y-100210061D01*
X150565551Y-100357183D01*
X150626784Y-100535097D01*
X150666346Y-100749554D01*
X150680564Y-101007257D01*
X150666194Y-101247898D01*
X150625666Y-101453613D01*
X150561877Y-101629590D01*
X150476312Y-101780213D01*
X150368972Y-101908879D01*
X150256468Y-101999452D01*
X150123509Y-102065628D01*
X149966054Y-102107312D01*
X149778759Y-102122103D01*
X149600506Y-102101210D01*
X149449577Y-102041160D01*
X149319704Y-101941669D01*
X149211977Y-101814029D01*
X149142845Y-101689135D01*
X149106664Y-101564680D01*
X149106664Y-101302363D01*
X149582021Y-101302363D01*
X149582021Y-100990771D01*
X148729492Y-100990771D01*
X148729492Y-102433513D01*
X149008295Y-102433513D01*
X149106664Y-102154893D01*
X149254344Y-102276221D01*
X149418618Y-102362436D01*
X149602815Y-102415224D01*
X149811548Y-102433513D01*
X150069532Y-102411621D01*
X150293800Y-102348897D01*
X150490485Y-102247337D01*
X150664078Y-102105617D01*
X150808647Y-101934819D01*
X150921755Y-101743041D01*
X151004453Y-101527317D01*
X151056029Y-101283662D01*
X151074040Y-101007257D01*
G37*
G36*
X147686603Y-100544602D02*
G01*
X147827926Y-100580465D01*
X147943897Y-100636546D01*
X148038895Y-100712151D01*
X148135530Y-100828851D01*
X148206233Y-100959197D01*
X148252119Y-101105626D01*
X147891433Y-101105626D01*
X147848849Y-101000188D01*
X147793064Y-100925191D01*
X147720713Y-100874265D01*
X147615324Y-100839943D01*
X147465168Y-100826823D01*
X147348792Y-100838901D01*
X147257772Y-100872283D01*
X147186365Y-100925191D01*
X147131025Y-100995570D01*
X147098831Y-101071272D01*
X147087996Y-101154719D01*
X147187627Y-101198767D01*
X147383103Y-101253087D01*
X147537387Y-101296892D01*
X147727485Y-101335153D01*
X147917532Y-101383423D01*
X148068165Y-101455017D01*
X148186540Y-101548194D01*
X148267765Y-101654485D01*
X148316884Y-101778467D01*
X148334001Y-101925366D01*
X148317756Y-102050538D01*
X148269491Y-102164060D01*
X148186540Y-102269565D01*
X148067308Y-102357273D01*
X147912354Y-102413135D01*
X147710999Y-102433513D01*
X147526357Y-102417364D01*
X147363512Y-102370768D01*
X147218377Y-102294696D01*
X147087996Y-102187683D01*
X147069499Y-102321219D01*
X147022417Y-102400724D01*
X146628942Y-102400724D01*
X146701306Y-102326765D01*
X146744789Y-102235718D01*
X146760100Y-102122103D01*
X146760100Y-101794207D01*
X147087996Y-101794207D01*
X147120024Y-101848184D01*
X147219155Y-101958155D01*
X147349014Y-102057538D01*
X147499943Y-102117531D01*
X147678209Y-102138407D01*
X147825516Y-102123108D01*
X147891433Y-102089314D01*
X147952903Y-101998958D01*
X147973316Y-101892576D01*
X147953709Y-101800210D01*
X147891433Y-101712142D01*
X147814271Y-101657206D01*
X147694696Y-101613773D01*
X147268431Y-101515404D01*
X147087996Y-101466311D01*
X147087996Y-101794207D01*
X146760100Y-101794207D01*
X146760100Y-101089139D01*
X146777998Y-100953718D01*
X146831494Y-100829347D01*
X146924048Y-100712151D01*
X147018671Y-100639000D01*
X147143288Y-100582743D01*
X147305377Y-100545484D01*
X147514261Y-100531716D01*
X147686603Y-100544602D01*
G37*
G36*
X144858411Y-100550079D02*
G01*
X144988088Y-100604038D01*
X145105599Y-100695664D01*
X145244102Y-100604553D01*
X145395703Y-100550243D01*
X145564654Y-100531716D01*
X145742907Y-100552610D01*
X145893835Y-100612660D01*
X146023708Y-100712151D01*
X146123075Y-100841901D01*
X146183075Y-100992822D01*
X146203959Y-101171205D01*
X146183954Y-101327740D01*
X146124810Y-101468289D01*
X146023708Y-101597470D01*
X146172411Y-101709287D01*
X146247081Y-101811280D01*
X146269539Y-101908879D01*
X146248408Y-102029466D01*
X146187656Y-102122103D01*
X146072801Y-102220472D01*
X146193480Y-102290036D01*
X146269539Y-102351631D01*
X146331137Y-102441874D01*
X146351604Y-102548368D01*
X146338655Y-102652934D01*
X146300769Y-102744784D01*
X146236749Y-102827172D01*
X146142738Y-102897099D01*
X146006061Y-102953507D01*
X145813317Y-102992527D01*
X145548167Y-103007423D01*
X145226198Y-102991603D01*
X145003353Y-102951133D01*
X144855098Y-102894562D01*
X144761217Y-102827172D01*
X144688605Y-102732890D01*
X144645098Y-102624994D01*
X144633981Y-102532065D01*
X144941651Y-102532065D01*
X144956576Y-102594634D01*
X145007231Y-102663224D01*
X145095181Y-102717649D01*
X145265925Y-102759983D01*
X145564654Y-102777896D01*
X145784010Y-102763172D01*
X145916629Y-102727425D01*
X145990919Y-102679527D01*
X146040628Y-102608681D01*
X146056498Y-102532065D01*
X146040618Y-102455292D01*
X145990919Y-102384420D01*
X145931076Y-102342223D01*
X145826971Y-102302355D01*
X145590791Y-102329231D01*
X145220271Y-102351631D01*
X145112546Y-102360584D01*
X145039182Y-102383650D01*
X144990744Y-102417210D01*
X144953739Y-102470998D01*
X144941651Y-102532065D01*
X144633981Y-102532065D01*
X144630059Y-102499275D01*
X144644661Y-102384351D01*
X144687742Y-102281628D01*
X144761217Y-102187683D01*
X144857933Y-102120703D01*
X145007231Y-102072827D01*
X145564654Y-102040038D01*
X145762743Y-102017252D01*
X145879307Y-101982364D01*
X145941643Y-101941669D01*
X145966114Y-101905105D01*
X145974432Y-101859787D01*
X145956497Y-101798402D01*
X145892550Y-101728628D01*
X145712138Y-101791004D01*
X145548167Y-101810511D01*
X145346937Y-101790137D01*
X145192037Y-101734278D01*
X145072810Y-101646563D01*
X144974128Y-101516448D01*
X144913685Y-101360471D01*
X144892375Y-101171205D01*
X145220271Y-101171205D01*
X145232346Y-101287457D01*
X145265724Y-101378422D01*
X145318640Y-101449825D01*
X145378149Y-101494101D01*
X145453160Y-101521885D01*
X145548167Y-101531891D01*
X145631614Y-101521056D01*
X145707316Y-101488862D01*
X145777695Y-101433522D01*
X145831352Y-101362460D01*
X145864374Y-101276446D01*
X145876063Y-101171205D01*
X145863131Y-101066627D01*
X145825302Y-100974777D01*
X145761391Y-100892402D01*
X145671036Y-100830932D01*
X145564654Y-100810519D01*
X145469511Y-100820515D01*
X145394513Y-100848248D01*
X145335127Y-100892402D01*
X145271107Y-100974790D01*
X145233221Y-101066639D01*
X145220271Y-101171205D01*
X144892375Y-101171205D01*
X144905457Y-101044003D01*
X144943650Y-100930221D01*
X145007231Y-100826823D01*
X144843479Y-100799155D01*
X144697410Y-100805586D01*
X144564479Y-100843309D01*
X144564479Y-100531716D01*
X144712124Y-100531716D01*
X144858411Y-100550079D01*
G37*
G36*
X143753317Y-100544602D02*
G01*
X143894639Y-100580465D01*
X144010610Y-100636546D01*
X144105608Y-100712151D01*
X144202244Y-100828851D01*
X144272946Y-100959197D01*
X144318832Y-101105626D01*
X143958146Y-101105626D01*
X143915562Y-101000188D01*
X143859778Y-100925191D01*
X143787426Y-100874265D01*
X143682038Y-100839943D01*
X143531882Y-100826823D01*
X143415506Y-100838901D01*
X143324485Y-100872283D01*
X143253078Y-100925191D01*
X143197739Y-100995570D01*
X143165544Y-101071272D01*
X143154710Y-101154719D01*
X143254340Y-101198767D01*
X143449816Y-101253087D01*
X143604100Y-101296892D01*
X143794198Y-101335153D01*
X143984246Y-101383423D01*
X144134878Y-101455017D01*
X144253253Y-101548194D01*
X144334479Y-101654485D01*
X144383597Y-101778467D01*
X144400714Y-101925366D01*
X144384469Y-102050538D01*
X144336204Y-102164060D01*
X144253253Y-102269565D01*
X144134022Y-102357273D01*
X143979068Y-102413135D01*
X143777712Y-102433513D01*
X143593070Y-102417364D01*
X143430226Y-102370768D01*
X143285090Y-102294696D01*
X143154710Y-102187683D01*
X143136212Y-102321219D01*
X143089130Y-102400724D01*
X142695655Y-102400724D01*
X142768019Y-102326765D01*
X142811502Y-102235718D01*
X142826814Y-102122103D01*
X142826814Y-101794207D01*
X143154710Y-101794207D01*
X143186738Y-101848184D01*
X143285868Y-101958155D01*
X143415727Y-102057538D01*
X143566656Y-102117531D01*
X143744922Y-102138407D01*
X143892229Y-102123108D01*
X143958146Y-102089314D01*
X144019616Y-101998958D01*
X144040029Y-101892576D01*
X144020422Y-101800210D01*
X143958146Y-101712142D01*
X143880984Y-101657206D01*
X143761409Y-101613773D01*
X143335144Y-101515404D01*
X143154710Y-101466311D01*
X143154710Y-101794207D01*
X142826814Y-101794207D01*
X142826814Y-101089139D01*
X142844712Y-100953718D01*
X142898208Y-100829347D01*
X142990762Y-100712151D01*
X143085384Y-100639000D01*
X143210001Y-100582743D01*
X143372090Y-100545484D01*
X143580974Y-100531716D01*
X143753317Y-100544602D01*
G37*
G36*
X141975566Y-102400724D02*
G01*
X142303462Y-102400724D01*
X142303462Y-100564506D01*
X141975566Y-100564506D01*
X141975566Y-100892402D01*
X141813337Y-100723509D01*
X141657505Y-100613556D01*
X141505270Y-100551743D01*
X141352564Y-100531716D01*
X141190692Y-100545056D01*
X141051874Y-100583022D01*
X140931976Y-100644010D01*
X140827930Y-100728454D01*
X140754455Y-100822399D01*
X140711374Y-100925122D01*
X140696772Y-101040047D01*
X140696772Y-102400724D01*
X141024668Y-102400724D01*
X141024668Y-101138415D01*
X141035949Y-101044065D01*
X141068582Y-100963115D01*
X141123037Y-100892402D01*
X141194443Y-100839493D01*
X141285464Y-100806112D01*
X141401840Y-100794033D01*
X141505126Y-100810300D01*
X141613115Y-100862099D01*
X141729736Y-100957981D01*
X141842130Y-101089767D01*
X141917617Y-101219750D01*
X141961207Y-101349844D01*
X141975566Y-101482615D01*
X141975566Y-102400724D01*
G37*
G36*
X140040980Y-99892411D02*
G01*
X140204928Y-99892411D01*
X140204928Y-99531725D01*
X139827939Y-99531725D01*
X139827939Y-99892411D01*
X140040980Y-100384255D01*
X140204928Y-100384255D01*
X140040980Y-99892411D01*
G37*
G36*
X139352032Y-101089139D02*
G01*
X139335341Y-100953195D01*
X139286636Y-100834396D01*
X139204570Y-100728454D01*
X139100782Y-100645408D01*
X138976286Y-100584306D01*
X138826898Y-100545549D01*
X138647147Y-100531716D01*
X138447447Y-100545273D01*
X138290495Y-100582200D01*
X138167969Y-100638416D01*
X138073237Y-100712151D01*
X137979686Y-100829081D01*
X137926693Y-100948116D01*
X137909289Y-101072836D01*
X138237185Y-101072836D01*
X138264107Y-100968885D01*
X138302764Y-100908888D01*
X138375730Y-100859100D01*
X138490377Y-100824241D01*
X138663450Y-100810519D01*
X138768691Y-100822209D01*
X138854705Y-100855230D01*
X138925767Y-100908888D01*
X138988183Y-100996818D01*
X139007832Y-101089139D01*
X138995706Y-101150192D01*
X138958556Y-101203995D01*
X138856047Y-101261270D01*
X138548778Y-101351456D01*
X138188092Y-101449825D01*
X138068017Y-101506318D01*
X137991355Y-101564680D01*
X137917870Y-101658622D01*
X137874794Y-101761286D01*
X137860196Y-101876090D01*
X137877600Y-102000810D01*
X137930593Y-102119845D01*
X138024144Y-102236775D01*
X138127570Y-102317885D01*
X138258662Y-102379131D01*
X138423705Y-102418988D01*
X138630660Y-102433513D01*
X138837718Y-102418986D01*
X139002819Y-102379125D01*
X139133935Y-102317878D01*
X139237360Y-102236775D01*
X139328129Y-102118926D01*
X139382511Y-101984085D01*
X139401308Y-101826997D01*
X139073412Y-101826997D01*
X139042040Y-101960564D01*
X138991346Y-102040038D01*
X138907707Y-102101000D01*
X138795889Y-102140364D01*
X138647147Y-102154893D01*
X138462484Y-102140896D01*
X138343259Y-102105792D01*
X138269975Y-102056524D01*
X138221041Y-101983370D01*
X138204396Y-101892576D01*
X138221866Y-101828550D01*
X138286461Y-101744931D01*
X138365698Y-101690769D01*
X138499502Y-101646563D01*
X138942253Y-101531891D01*
X139106163Y-101470278D01*
X139204570Y-101400732D01*
X139289591Y-101295605D01*
X139336808Y-101192811D01*
X139352032Y-101089139D01*
G37*
G36*
X156516198Y-104637304D02*
G01*
X156155512Y-104637304D01*
X155712761Y-106719352D01*
X155171824Y-104637304D01*
X154811139Y-104637304D01*
X154270019Y-106719352D01*
X153827451Y-104637304D01*
X153466765Y-104637304D01*
X154089767Y-107473513D01*
X154417663Y-107473513D01*
X154991390Y-105194727D01*
X155565299Y-107473513D01*
X155893195Y-107473513D01*
X156516198Y-104637304D01*
G37*
G36*
X153154623Y-104653607D02*
G01*
X152826727Y-104653607D01*
X152826727Y-105079872D01*
X153154623Y-105079872D01*
X153154623Y-104653607D01*
G37*
G36*
X153154623Y-105604506D02*
G01*
X152826727Y-105604506D01*
X152826727Y-107440724D01*
X153154623Y-107440724D01*
X153154623Y-105604506D01*
G37*
G36*
X152220394Y-104637304D02*
G01*
X150334900Y-104637304D01*
X150334900Y-104948714D01*
X151843222Y-104948714D01*
X151843222Y-105866823D01*
X150662796Y-105866823D01*
X150662796Y-106178415D01*
X151843222Y-106178415D01*
X151843222Y-107440724D01*
X152220394Y-107440724D01*
X152220394Y-104637304D01*
G37*
G36*
X149956995Y-104653607D02*
G01*
X149629099Y-104653607D01*
X149629099Y-105079872D01*
X149956995Y-105079872D01*
X149956995Y-104653607D01*
G37*
G36*
X149956995Y-105604506D02*
G01*
X149629099Y-105604506D01*
X149629099Y-107440724D01*
X149956995Y-107440724D01*
X149956995Y-105604506D01*
G37*
G36*
X147793981Y-104637304D02*
G01*
X145990552Y-104637304D01*
X145990552Y-104948714D01*
X147416992Y-104948714D01*
X147416992Y-105817730D01*
X146088921Y-105817730D01*
X146088921Y-106129139D01*
X147416992Y-106129139D01*
X147416992Y-107129314D01*
X145908670Y-107129314D01*
X145908670Y-107440724D01*
X147793981Y-107440724D01*
X147793981Y-104637304D01*
G37*
G36*
X145548168Y-105604506D02*
G01*
X145171179Y-105604506D01*
X144728427Y-106260298D01*
X144285859Y-105604506D01*
X143908687Y-105604506D01*
X144531690Y-106506311D01*
X143859595Y-107440724D01*
X144236583Y-107440724D01*
X144728427Y-106752142D01*
X145220272Y-107440724D01*
X145597444Y-107440724D01*
X144925165Y-106506311D01*
X145548168Y-105604506D01*
G37*
G36*
X143367934Y-104965200D02*
G01*
X143040038Y-104965200D01*
X143040038Y-105604506D01*
X142482615Y-105604506D01*
X142482615Y-105866823D01*
X143040038Y-105866823D01*
X143040038Y-106932576D01*
X143020388Y-107024898D01*
X142957972Y-107112827D01*
X142878467Y-107159909D01*
X142744931Y-107178407D01*
X142595285Y-107165289D01*
X142459556Y-107126990D01*
X142334970Y-107063735D01*
X142334970Y-107375144D01*
X142458417Y-107429634D01*
X142588945Y-107462405D01*
X142728445Y-107473513D01*
X142942308Y-107454171D01*
X143095717Y-107403010D01*
X143203986Y-107326051D01*
X143297537Y-107209121D01*
X143350530Y-107090086D01*
X143367934Y-106965366D01*
X143367934Y-105866823D01*
X143761409Y-105866823D01*
X143761409Y-105604506D01*
X143367934Y-105604506D01*
X143367934Y-104965200D01*
G37*
G36*
X141398468Y-105586936D02*
G01*
X141553320Y-105630674D01*
X141690046Y-105701739D01*
X141811618Y-105801243D01*
X141932280Y-105948876D01*
X142018621Y-106115603D01*
X142071863Y-106305149D01*
X142090422Y-106522615D01*
X142072550Y-106741454D01*
X142021790Y-106928344D01*
X141940452Y-107089000D01*
X141828105Y-107227683D01*
X141697872Y-107333932D01*
X141550328Y-107410075D01*
X141382108Y-107457101D01*
X141188616Y-107473513D01*
X141001413Y-107458738D01*
X140843978Y-107417094D01*
X140710984Y-107350973D01*
X140598403Y-107260472D01*
X140514139Y-107153640D01*
X140442411Y-107009095D01*
X140385362Y-106817721D01*
X140746048Y-106817721D01*
X140758527Y-106911543D01*
X140795903Y-106998090D01*
X140860720Y-107080038D01*
X140933071Y-107130964D01*
X141038460Y-107165287D01*
X141188616Y-107178407D01*
X141335515Y-107161289D01*
X141459497Y-107112171D01*
X141565788Y-107030945D01*
X141633270Y-106944777D01*
X141684316Y-106835154D01*
X141717593Y-106696699D01*
X141729736Y-106522615D01*
X140401665Y-106522615D01*
X140418574Y-106282684D01*
X140423998Y-106260298D01*
X140778837Y-106260298D01*
X141713250Y-106260298D01*
X141681963Y-106155669D01*
X141633027Y-106063434D01*
X141565788Y-105981678D01*
X141471506Y-105909066D01*
X141363611Y-105865558D01*
X141237892Y-105850519D01*
X141100267Y-105864666D01*
X140993296Y-105903641D01*
X140909996Y-105965191D01*
X140835565Y-106058837D01*
X140792963Y-106156221D01*
X140778837Y-106260298D01*
X140423998Y-106260298D01*
X140465016Y-106090996D01*
X140536462Y-105938413D01*
X140631193Y-105817730D01*
X140761924Y-105709019D01*
X140902161Y-105633049D01*
X141054227Y-105587327D01*
X141221406Y-105571716D01*
X141398468Y-105586936D01*
G37*
G36*
X139614715Y-107440724D02*
G01*
X139942611Y-107440724D01*
X139942611Y-105604506D01*
X139614715Y-105604506D01*
X139614715Y-105932402D01*
X139452486Y-105763509D01*
X139296654Y-105653556D01*
X139144419Y-105591743D01*
X138991713Y-105571716D01*
X138829841Y-105585056D01*
X138691023Y-105623022D01*
X138571125Y-105684010D01*
X138467079Y-105768454D01*
X138393604Y-105862399D01*
X138350523Y-105965122D01*
X138335921Y-106080047D01*
X138335921Y-107440724D01*
X138663817Y-107440724D01*
X138663817Y-106178415D01*
X138675098Y-106084065D01*
X138707731Y-106003115D01*
X138762185Y-105932402D01*
X138833592Y-105879493D01*
X138924612Y-105846112D01*
X139040989Y-105834033D01*
X139144274Y-105850300D01*
X139252264Y-105902099D01*
X139368885Y-105997981D01*
X139481279Y-106129767D01*
X139556766Y-106259750D01*
X139600356Y-106389844D01*
X139614715Y-106522615D01*
X139614715Y-107440724D01*
G37*
G36*
X136548979Y-105834033D02*
G01*
X136658021Y-105711762D01*
X136784614Y-105626118D01*
X136932177Y-105573739D01*
X137106402Y-105555413D01*
X137249607Y-105568880D01*
X137380313Y-105608389D01*
X137501305Y-105674160D01*
X137614549Y-105768454D01*
X137724829Y-105906755D01*
X137806333Y-106074249D01*
X137858264Y-106276935D01*
X137876866Y-106522615D01*
X137857372Y-106747753D01*
X137801261Y-106945321D01*
X137709911Y-107120426D01*
X137581760Y-107276775D01*
X137477844Y-107360512D01*
X137355639Y-107421559D01*
X137211553Y-107459925D01*
X137040823Y-107473513D01*
X136891716Y-107456759D01*
X136762769Y-107408308D01*
X136649382Y-107327861D01*
X136548979Y-107211196D01*
X136548979Y-107440724D01*
X136221083Y-107440724D01*
X136221083Y-106522615D01*
X136548979Y-106522615D01*
X136561854Y-106694970D01*
X136597685Y-106836297D01*
X136653710Y-106952262D01*
X136729230Y-107047248D01*
X136823511Y-107119860D01*
X136931407Y-107163368D01*
X137057126Y-107178407D01*
X137161704Y-107165475D01*
X137253554Y-107127645D01*
X137335929Y-107063735D01*
X137410813Y-106968783D01*
X137466886Y-106850561D01*
X137503079Y-106703998D01*
X137516180Y-106522615D01*
X137503612Y-106330188D01*
X137469664Y-106181446D01*
X137418536Y-106067624D01*
X137352232Y-105981678D01*
X137258587Y-105907247D01*
X137161203Y-105864645D01*
X137057126Y-105850519D01*
X136942322Y-105865117D01*
X136839658Y-105908193D01*
X136745716Y-105981678D01*
X136661980Y-106085593D01*
X136600933Y-106207799D01*
X136562567Y-106351884D01*
X136548979Y-106522615D01*
X136221083Y-106522615D01*
X136221083Y-104637304D01*
X136548979Y-104637304D01*
X136548979Y-105834033D01*
G37*
G36*
X135120450Y-105586936D02*
G01*
X135275302Y-105630674D01*
X135412028Y-105701739D01*
X135533600Y-105801243D01*
X135654262Y-105948876D01*
X135740602Y-106115603D01*
X135793845Y-106305149D01*
X135812403Y-106522615D01*
X135794532Y-106741454D01*
X135743772Y-106928344D01*
X135662434Y-107089000D01*
X135550087Y-107227683D01*
X135419854Y-107333932D01*
X135272310Y-107410075D01*
X135104089Y-107457101D01*
X134910598Y-107473513D01*
X134723395Y-107458738D01*
X134565960Y-107417094D01*
X134432966Y-107350973D01*
X134320385Y-107260472D01*
X134236121Y-107153640D01*
X134164393Y-107009095D01*
X134107344Y-106817721D01*
X134468030Y-106817721D01*
X134480508Y-106911543D01*
X134517885Y-106998090D01*
X134582702Y-107080038D01*
X134655053Y-107130964D01*
X134760442Y-107165287D01*
X134910598Y-107178407D01*
X135057497Y-107161289D01*
X135181479Y-107112171D01*
X135287770Y-107030945D01*
X135355252Y-106944777D01*
X135406298Y-106835154D01*
X135439575Y-106696699D01*
X135451718Y-106522615D01*
X134123647Y-106522615D01*
X134140556Y-106282684D01*
X134145980Y-106260298D01*
X134500819Y-106260298D01*
X135435231Y-106260298D01*
X135403945Y-106155669D01*
X135355008Y-106063434D01*
X135287770Y-105981678D01*
X135193488Y-105909066D01*
X135085593Y-105865558D01*
X134959874Y-105850519D01*
X134822249Y-105864666D01*
X134715278Y-105903641D01*
X134631978Y-105965191D01*
X134557547Y-106058837D01*
X134514945Y-106156221D01*
X134500819Y-106260298D01*
X134145980Y-106260298D01*
X134186998Y-106090996D01*
X134258444Y-105938413D01*
X134353175Y-105817730D01*
X134483906Y-105709019D01*
X134624143Y-105633049D01*
X134776209Y-105587327D01*
X134943387Y-105571716D01*
X135120450Y-105586936D01*
G37*
G36*
X133172749Y-105834033D02*
G01*
X133034065Y-105721677D01*
X132873434Y-105640340D01*
X132686604Y-105589585D01*
X132467864Y-105571716D01*
X132467864Y-105932402D01*
X132648115Y-105916099D01*
X132803871Y-105938404D01*
X132955354Y-106006944D01*
X133107170Y-106129139D01*
X133218180Y-106255819D01*
X133298962Y-106381153D01*
X133353183Y-106506311D01*
X133353183Y-107440724D01*
X133681079Y-107440724D01*
X133681079Y-105604506D01*
X133353183Y-105604506D01*
X133353183Y-106063560D01*
X133265851Y-105939086D01*
X133172749Y-105834033D01*
G37*
D11*
G36*
X165102622Y-96341655D02*
G01*
X165139359Y-96344278D01*
X165175954Y-96348650D01*
X165212332Y-96354772D01*
X165248433Y-96362642D01*
X165284185Y-96372259D01*
X165319518Y-96383627D01*
X165354369Y-96396745D01*
X165388665Y-96411611D01*
X165422341Y-96428225D01*
X165455325Y-96446589D01*
X165487554Y-96466703D01*
X165518960Y-96488561D01*
X165549471Y-96512172D01*
X165579020Y-96537536D01*
X165607541Y-96564642D01*
X165954631Y-96930084D01*
X166279335Y-97308688D01*
X166581644Y-97699579D01*
X166861555Y-98101881D01*
X167119077Y-98514717D01*
X167354207Y-98937204D01*
X167566939Y-99368472D01*
X167757280Y-99807633D01*
X167925231Y-100253821D01*
X168070787Y-100706152D01*
X168193945Y-101163745D01*
X168294718Y-101625733D01*
X168373090Y-102091224D01*
X168429074Y-102559355D01*
X168462667Y-103029238D01*
X168473861Y-103500000D01*
X168462667Y-103970759D01*
X168429074Y-104440641D01*
X168373090Y-104908772D01*
X168294718Y-105374265D01*
X168193945Y-105836251D01*
X168070787Y-106293844D01*
X167925231Y-106746176D01*
X167757280Y-107192363D01*
X167566939Y-107631524D01*
X167354207Y-108062792D01*
X167119077Y-108485279D01*
X166861555Y-108898117D01*
X166581644Y-109300417D01*
X166279335Y-109691308D01*
X165954631Y-110069912D01*
X165607541Y-110435354D01*
X165578752Y-110462460D01*
X165548956Y-110487824D01*
X165518213Y-110511435D01*
X165486596Y-110533293D01*
X165454169Y-110553407D01*
X165421002Y-110571771D01*
X165387167Y-110588385D01*
X165352724Y-110603251D01*
X165317745Y-110616369D01*
X165282299Y-110627737D01*
X165246455Y-110637354D01*
X165210275Y-110645224D01*
X165173837Y-110651346D01*
X165137202Y-110655718D01*
X165100435Y-110658341D01*
X165063612Y-110659219D01*
X165026799Y-110658341D01*
X164990060Y-110655718D01*
X164953465Y-110651346D01*
X164917086Y-110645224D01*
X164880986Y-110637354D01*
X164845237Y-110627737D01*
X164809899Y-110616369D01*
X164775053Y-110603251D01*
X164740754Y-110588385D01*
X164707079Y-110571771D01*
X164674092Y-110553407D01*
X164641865Y-110533293D01*
X164610460Y-110511435D01*
X164579951Y-110487824D01*
X164550399Y-110462460D01*
X164521879Y-110435354D01*
X164494754Y-110406832D01*
X164469348Y-110377286D01*
X164445667Y-110346777D01*
X164423711Y-110315377D01*
X164403487Y-110283152D01*
X164384999Y-110250176D01*
X164368252Y-110216510D01*
X164353251Y-110182228D01*
X164340000Y-110147399D01*
X164328497Y-110112089D01*
X164318754Y-110076369D01*
X164310774Y-110040302D01*
X164304559Y-110003965D01*
X164300114Y-109967418D01*
X164297447Y-109930736D01*
X164296553Y-109893986D01*
X164297447Y-109857234D01*
X164300114Y-109820555D01*
X164304559Y-109784012D01*
X164310774Y-109747672D01*
X164318754Y-109711607D01*
X164328497Y-109675884D01*
X164340000Y-109640576D01*
X164353251Y-109605745D01*
X164368252Y-109571462D01*
X164384999Y-109537800D01*
X164403487Y-109504821D01*
X164423711Y-109472598D01*
X164445667Y-109441199D01*
X164469348Y-109410690D01*
X164494754Y-109381137D01*
X164521879Y-109352621D01*
X164815025Y-109044220D01*
X165089253Y-108724713D01*
X165344571Y-108394840D01*
X165580978Y-108055344D01*
X165798467Y-107706961D01*
X165997047Y-107350438D01*
X166176715Y-106986513D01*
X166337473Y-106615925D01*
X166479315Y-106239418D01*
X166602247Y-105857732D01*
X166706264Y-105471608D01*
X166791370Y-105081789D01*
X166857563Y-104689015D01*
X166904846Y-104294026D01*
X166933216Y-103897559D01*
X166942668Y-103500363D01*
X166933216Y-103103176D01*
X166904846Y-102706738D01*
X166857563Y-102311791D01*
X166791370Y-101919077D01*
X166706264Y-101529335D01*
X166602247Y-101143305D01*
X166479315Y-100761731D01*
X166337473Y-100385351D01*
X166176715Y-100014911D01*
X165997047Y-99651147D01*
X165798467Y-99294802D01*
X165580978Y-98946620D01*
X165344571Y-98607337D01*
X165089253Y-98277693D01*
X164815025Y-97958437D01*
X164521879Y-97650302D01*
X164494771Y-97621518D01*
X164469411Y-97591719D01*
X164445801Y-97560977D01*
X164423937Y-97529357D01*
X164403827Y-97496932D01*
X164385462Y-97463765D01*
X164368849Y-97429927D01*
X164353983Y-97395487D01*
X164340866Y-97360507D01*
X164329497Y-97325063D01*
X164319878Y-97289217D01*
X164312007Y-97253038D01*
X164305886Y-97216597D01*
X164301512Y-97179962D01*
X164298891Y-97143197D01*
X164298017Y-97106374D01*
X164298891Y-97069560D01*
X164301512Y-97032821D01*
X164305886Y-96996228D01*
X164312007Y-96959848D01*
X164319878Y-96923749D01*
X164329497Y-96887997D01*
X164340866Y-96852662D01*
X164353983Y-96817812D01*
X164368849Y-96783519D01*
X164385462Y-96749840D01*
X164403827Y-96716855D01*
X164423937Y-96684629D01*
X164445801Y-96653220D01*
X164469411Y-96622710D01*
X164494771Y-96593164D01*
X164521879Y-96564642D01*
X164550666Y-96537536D01*
X164580463Y-96512172D01*
X164611206Y-96488561D01*
X164642824Y-96466703D01*
X164675249Y-96446589D01*
X164708416Y-96428225D01*
X164742255Y-96411611D01*
X164776696Y-96396745D01*
X164811675Y-96383627D01*
X164847118Y-96372259D01*
X164882967Y-96362642D01*
X164919144Y-96354772D01*
X164955584Y-96348650D01*
X164992222Y-96344278D01*
X165028983Y-96341655D01*
X165065808Y-96340777D01*
X165102622Y-96341655D01*
G37*
G36*
X158724739Y-102480044D02*
G01*
X158776604Y-102483988D01*
X158827717Y-102490484D01*
X158878009Y-102499468D01*
X158927418Y-102510868D01*
X158975885Y-102524629D01*
X159023336Y-102540686D01*
X159069711Y-102558974D01*
X159114952Y-102579425D01*
X159158988Y-102601978D01*
X159201758Y-102626572D01*
X159243191Y-102653135D01*
X159283234Y-102681609D01*
X159321815Y-102711928D01*
X159358872Y-102744028D01*
X159394339Y-102777842D01*
X159428156Y-102813312D01*
X159460256Y-102850370D01*
X159490575Y-102888947D01*
X159519048Y-102928989D01*
X159545613Y-102970427D01*
X159570204Y-103013196D01*
X159592757Y-103057231D01*
X159613209Y-103102470D01*
X159631495Y-103148848D01*
X159647552Y-103196302D01*
X159661313Y-103244765D01*
X159672718Y-103294174D01*
X159681699Y-103344464D01*
X159688194Y-103395578D01*
X159692138Y-103447444D01*
X159693469Y-103500000D01*
X159692138Y-103552552D01*
X159688194Y-103604418D01*
X159681699Y-103655532D01*
X159672718Y-103705822D01*
X159661313Y-103755231D01*
X159647552Y-103803694D01*
X159631495Y-103851148D01*
X159613209Y-103897527D01*
X159592757Y-103942766D01*
X159570204Y-103986800D01*
X159545613Y-104029569D01*
X159519048Y-104071007D01*
X159490575Y-104111049D01*
X159460256Y-104149626D01*
X159428156Y-104186684D01*
X159394339Y-104222154D01*
X159358872Y-104255968D01*
X159321815Y-104288068D01*
X159283234Y-104318387D01*
X159243191Y-104346861D01*
X159201758Y-104373424D01*
X159158988Y-104398018D01*
X159114952Y-104420571D01*
X159069711Y-104441022D01*
X159023336Y-104459310D01*
X158975885Y-104475367D01*
X158927418Y-104489128D01*
X158878009Y-104500528D01*
X158827717Y-104509512D01*
X158776604Y-104516008D01*
X158724739Y-104519952D01*
X158672183Y-104521282D01*
X158619631Y-104519952D01*
X158567764Y-104516008D01*
X158516652Y-104509512D01*
X158466360Y-104500528D01*
X158416952Y-104489128D01*
X158368485Y-104475367D01*
X158321031Y-104459310D01*
X158274653Y-104441022D01*
X158229416Y-104420571D01*
X158185380Y-104398018D01*
X158142611Y-104373424D01*
X158101175Y-104346861D01*
X158061134Y-104318387D01*
X158022554Y-104288068D01*
X157985498Y-104255968D01*
X157950030Y-104222154D01*
X157916215Y-104186684D01*
X157884111Y-104149626D01*
X157853795Y-104111049D01*
X157825320Y-104071007D01*
X157798756Y-104029569D01*
X157774163Y-103986800D01*
X157751613Y-103942766D01*
X157731162Y-103897527D01*
X157712875Y-103851148D01*
X157696816Y-103803694D01*
X157683055Y-103755231D01*
X157671648Y-103705822D01*
X157662670Y-103655532D01*
X157656176Y-103604418D01*
X157652232Y-103552552D01*
X157650903Y-103500000D01*
X157652232Y-103447444D01*
X157656176Y-103395578D01*
X157662670Y-103344464D01*
X157671648Y-103294174D01*
X157683055Y-103244765D01*
X157696816Y-103196302D01*
X157712875Y-103148848D01*
X157731162Y-103102470D01*
X157751613Y-103057231D01*
X157774163Y-103013196D01*
X157798756Y-102970427D01*
X157825320Y-102928989D01*
X157853795Y-102888947D01*
X157884111Y-102850370D01*
X157916215Y-102813312D01*
X157950030Y-102777842D01*
X157985498Y-102744028D01*
X158022554Y-102711928D01*
X158061134Y-102681609D01*
X158101175Y-102653135D01*
X158142611Y-102626572D01*
X158185380Y-102601978D01*
X158229416Y-102579425D01*
X158274653Y-102558974D01*
X158321031Y-102540686D01*
X158368485Y-102524629D01*
X158416952Y-102510868D01*
X158466360Y-102499468D01*
X158516652Y-102490484D01*
X158567764Y-102483988D01*
X158619631Y-102480044D01*
X158672183Y-102478714D01*
X158724739Y-102480044D01*
G37*
G36*
X160923851Y-100517498D02*
G01*
X160960588Y-100520123D01*
X160997181Y-100524494D01*
X161033566Y-100530617D01*
X161069661Y-100538485D01*
X161105414Y-100548106D01*
X161140748Y-100559474D01*
X161175598Y-100572591D01*
X161209893Y-100587454D01*
X161243567Y-100604069D01*
X161276556Y-100622435D01*
X161308785Y-100642549D01*
X161340187Y-100664408D01*
X161370698Y-100688019D01*
X161400248Y-100713379D01*
X161428768Y-100740487D01*
X161566968Y-100885881D01*
X161696250Y-101036516D01*
X161816617Y-101192040D01*
X161928065Y-101352106D01*
X162030595Y-101516356D01*
X162124206Y-101684452D01*
X162208898Y-101856037D01*
X162284670Y-102030760D01*
X162351518Y-102208278D01*
X162409452Y-102388234D01*
X162458460Y-102570280D01*
X162498547Y-102754070D01*
X162529713Y-102939250D01*
X162551953Y-103125468D01*
X162565270Y-103312381D01*
X162569664Y-103499634D01*
X162565133Y-103686876D01*
X162551677Y-103873764D01*
X162529297Y-104059941D01*
X162497988Y-104245059D01*
X162457752Y-104428769D01*
X162408589Y-104610724D01*
X162350498Y-104790569D01*
X162283478Y-104967955D01*
X162207534Y-105142532D01*
X162122655Y-105313957D01*
X162028844Y-105481872D01*
X161926109Y-105645928D01*
X161814444Y-105805776D01*
X161693841Y-105961067D01*
X161564309Y-106111457D01*
X161425843Y-106256582D01*
X161397323Y-106283690D01*
X161367771Y-106309052D01*
X161337264Y-106332661D01*
X161305863Y-106354524D01*
X161273638Y-106374636D01*
X161240662Y-106393001D01*
X161206995Y-106409615D01*
X161172716Y-106424479D01*
X161137885Y-106437598D01*
X161102578Y-106448964D01*
X161066855Y-106458586D01*
X161030789Y-106466456D01*
X160994452Y-106472576D01*
X160957907Y-106476949D01*
X160921226Y-106479571D01*
X160884476Y-106480446D01*
X160847724Y-106479571D01*
X160811041Y-106476949D01*
X160774499Y-106472576D01*
X160738157Y-106466456D01*
X160702095Y-106458586D01*
X160666372Y-106448964D01*
X160631063Y-106437598D01*
X160596233Y-106424479D01*
X160561952Y-106409615D01*
X160528287Y-106393001D01*
X160495309Y-106374636D01*
X160463086Y-106354524D01*
X160431686Y-106332661D01*
X160401177Y-106309052D01*
X160371628Y-106283690D01*
X160343107Y-106256582D01*
X160315982Y-106228065D01*
X160290579Y-106198516D01*
X160266893Y-106168002D01*
X160244939Y-106136606D01*
X160224716Y-106104382D01*
X160206228Y-106071400D01*
X160189479Y-106037739D01*
X160174478Y-106003458D01*
X160161226Y-105968625D01*
X160149727Y-105933316D01*
X160139983Y-105897595D01*
X160132003Y-105861532D01*
X160125786Y-105825192D01*
X160121342Y-105788646D01*
X160118673Y-105751966D01*
X160117782Y-105715215D01*
X160118673Y-105678467D01*
X160121342Y-105641785D01*
X160125786Y-105605238D01*
X160132003Y-105568899D01*
X160139983Y-105532834D01*
X160149727Y-105497115D01*
X160161226Y-105461804D01*
X160174478Y-105426973D01*
X160189479Y-105392692D01*
X160206228Y-105359027D01*
X160224716Y-105326050D01*
X160244939Y-105293825D01*
X160266893Y-105262424D01*
X160290579Y-105231917D01*
X160315982Y-105202369D01*
X160343107Y-105173845D01*
X160427089Y-105085759D01*
X160505655Y-104994471D01*
X160578800Y-104900199D01*
X160646528Y-104803154D01*
X160708840Y-104703552D01*
X160765731Y-104601600D01*
X160817204Y-104497519D01*
X160863260Y-104391517D01*
X160903897Y-104283809D01*
X160939115Y-104174611D01*
X160968915Y-104064129D01*
X160993295Y-103952582D01*
X161012262Y-103840182D01*
X161025807Y-103727141D01*
X161033935Y-103613677D01*
X161036643Y-103500000D01*
X161033935Y-103386321D01*
X161025807Y-103272855D01*
X161012262Y-103159816D01*
X160993295Y-103047415D01*
X160968915Y-102935868D01*
X160939115Y-102825385D01*
X160903897Y-102716188D01*
X160863260Y-102608480D01*
X160817204Y-102502477D01*
X160765731Y-102398396D01*
X160708840Y-102296445D01*
X160646528Y-102196842D01*
X160578800Y-102099797D01*
X160505655Y-102005525D01*
X160427089Y-101914237D01*
X160343107Y-101826151D01*
X160315999Y-101797362D01*
X160290640Y-101767565D01*
X160267027Y-101736824D01*
X160245167Y-101705204D01*
X160225054Y-101672778D01*
X160206690Y-101639612D01*
X160190077Y-101605773D01*
X160175210Y-101571330D01*
X160162094Y-101536351D01*
X160150726Y-101500908D01*
X160141107Y-101465063D01*
X160133237Y-101428884D01*
X160127117Y-101392445D01*
X160122741Y-101355807D01*
X160120119Y-101319047D01*
X160119242Y-101282221D01*
X160120119Y-101245403D01*
X160122741Y-101208669D01*
X160127117Y-101172075D01*
X160133237Y-101135695D01*
X160141107Y-101099594D01*
X160150726Y-101063840D01*
X160162094Y-101028509D01*
X160175210Y-100993659D01*
X160190077Y-100959363D01*
X160206690Y-100925687D01*
X160225054Y-100892699D01*
X160245167Y-100860472D01*
X160267027Y-100829069D01*
X160290640Y-100798557D01*
X160315999Y-100769007D01*
X160343107Y-100740487D01*
X160371894Y-100713379D01*
X160401691Y-100688019D01*
X160432436Y-100664408D01*
X160464054Y-100642549D01*
X160496479Y-100622435D01*
X160529643Y-100604069D01*
X160563483Y-100587454D01*
X160597926Y-100572591D01*
X160632902Y-100559474D01*
X160668348Y-100548106D01*
X160704193Y-100538485D01*
X160740371Y-100530617D01*
X160776810Y-100524494D01*
X160813447Y-100520123D01*
X160850212Y-100517498D01*
X160887036Y-100516625D01*
X160923851Y-100517498D01*
G37*
G36*
X162995681Y-98445673D02*
G01*
X163032416Y-98448294D01*
X163069011Y-98452667D01*
X163105391Y-98458786D01*
X163141490Y-98466656D01*
X163177242Y-98476278D01*
X163212576Y-98487645D01*
X163247423Y-98500762D01*
X163281721Y-98515629D01*
X163315393Y-98532242D01*
X163348383Y-98550607D01*
X163380613Y-98570721D01*
X163412014Y-98592583D01*
X163442526Y-98616189D01*
X163472077Y-98641550D01*
X163500596Y-98668658D01*
X163742710Y-98923112D01*
X163969205Y-99186760D01*
X164180081Y-99458988D01*
X164375334Y-99739187D01*
X164554969Y-100026740D01*
X164718982Y-100321037D01*
X164867376Y-100621461D01*
X165000149Y-100927405D01*
X165117300Y-101238251D01*
X165218832Y-101553392D01*
X165304744Y-101872207D01*
X165375036Y-102194089D01*
X165429707Y-102518418D01*
X165468758Y-102844590D01*
X165492188Y-103171987D01*
X165500000Y-103500000D01*
X165492188Y-103828009D01*
X165468758Y-104155407D01*
X165429707Y-104481578D01*
X165375036Y-104805907D01*
X165304744Y-105127790D01*
X165218832Y-105446604D01*
X165117300Y-105761745D01*
X165000149Y-106072591D01*
X164867376Y-106378536D01*
X164718982Y-106678960D01*
X164554969Y-106973256D01*
X164375334Y-107260809D01*
X164180082Y-107541008D01*
X163969206Y-107813236D01*
X163742710Y-108076884D01*
X163500596Y-108331338D01*
X163471812Y-108358446D01*
X163442014Y-108383807D01*
X163411272Y-108407414D01*
X163379652Y-108429275D01*
X163347224Y-108449389D01*
X163314062Y-108467755D01*
X163280221Y-108484367D01*
X163245779Y-108499234D01*
X163210801Y-108512351D01*
X163175356Y-108523721D01*
X163139511Y-108533340D01*
X163103333Y-108541210D01*
X163066891Y-108547329D01*
X163030257Y-108551702D01*
X162993491Y-108554324D01*
X162956670Y-108555199D01*
X162919854Y-108554324D01*
X162883116Y-108551702D01*
X162846524Y-108547329D01*
X162810142Y-108541210D01*
X162774042Y-108533340D01*
X162738289Y-108523721D01*
X162702959Y-108512351D01*
X162668107Y-108499234D01*
X162633813Y-108484367D01*
X162600138Y-108467755D01*
X162567148Y-108449389D01*
X162534921Y-108429275D01*
X162503518Y-108407414D01*
X162473004Y-108383807D01*
X162443456Y-108358446D01*
X162414934Y-108331338D01*
X162387810Y-108302814D01*
X162362407Y-108273269D01*
X162338723Y-108242760D01*
X162316768Y-108211359D01*
X162296542Y-108179132D01*
X162278056Y-108146157D01*
X162261309Y-108112490D01*
X162246309Y-108078210D01*
X162233053Y-108043381D01*
X162221553Y-108008072D01*
X162211810Y-107972349D01*
X162203833Y-107936286D01*
X162197615Y-107899950D01*
X162193170Y-107863402D01*
X162190499Y-107826720D01*
X162189610Y-107789969D01*
X162190499Y-107753217D01*
X162193170Y-107716537D01*
X162197615Y-107679994D01*
X162203833Y-107643651D01*
X162211810Y-107607590D01*
X162221553Y-107571868D01*
X162233053Y-107536556D01*
X162246309Y-107501729D01*
X162261309Y-107467448D01*
X162278056Y-107433781D01*
X162296542Y-107400802D01*
X162316768Y-107368581D01*
X162338723Y-107337180D01*
X162362407Y-107306671D01*
X162387810Y-107277124D01*
X162414934Y-107248603D01*
X162602567Y-107051199D01*
X162778094Y-106846672D01*
X162941517Y-106635503D01*
X163092835Y-106418158D01*
X163232044Y-106195119D01*
X163359149Y-105966856D01*
X163474150Y-105733846D01*
X163577046Y-105496564D01*
X163667836Y-105255485D01*
X163746523Y-105011082D01*
X163813101Y-104763828D01*
X163867575Y-104514206D01*
X163909942Y-104262680D01*
X163940205Y-104009731D01*
X163958366Y-103755834D01*
X163964417Y-103501462D01*
X163958366Y-103247086D01*
X163940205Y-102993191D01*
X163909942Y-102740243D01*
X163867575Y-102488718D01*
X163813101Y-102239092D01*
X163746523Y-101991840D01*
X163667836Y-101747437D01*
X163577046Y-101506357D01*
X163474150Y-101269075D01*
X163359149Y-101036067D01*
X163232044Y-100807805D01*
X163092835Y-100584764D01*
X162941517Y-100367421D01*
X162778094Y-100156250D01*
X162602567Y-99951724D01*
X162414934Y-99754320D01*
X162387827Y-99725533D01*
X162362468Y-99695735D01*
X162338854Y-99664995D01*
X162316996Y-99633377D01*
X162296884Y-99600952D01*
X162278519Y-99567782D01*
X162261906Y-99533946D01*
X162247039Y-99499501D01*
X162233922Y-99464524D01*
X162222553Y-99429078D01*
X162212936Y-99393233D01*
X162205066Y-99357057D01*
X162198942Y-99320616D01*
X162194571Y-99283977D01*
X162191948Y-99247217D01*
X162191072Y-99210393D01*
X162191948Y-99173578D01*
X162194571Y-99136840D01*
X162198942Y-99100244D01*
X162205066Y-99063864D01*
X162212936Y-99027766D01*
X162222553Y-98992015D01*
X162233922Y-98956680D01*
X162247039Y-98921830D01*
X162261906Y-98887536D01*
X162278519Y-98853860D01*
X162296884Y-98820870D01*
X162316996Y-98788643D01*
X162338854Y-98757238D01*
X162362468Y-98726729D01*
X162387827Y-98697182D01*
X162414934Y-98668658D01*
X162443723Y-98641550D01*
X162473522Y-98616189D01*
X162504261Y-98592583D01*
X162535882Y-98570721D01*
X162568306Y-98550607D01*
X162601473Y-98532242D01*
X162635308Y-98515629D01*
X162669753Y-98500762D01*
X162704731Y-98487645D01*
X162740180Y-98476278D01*
X162776020Y-98466656D01*
X162812198Y-98458786D01*
X162848640Y-98452667D01*
X162885276Y-98448294D01*
X162922041Y-98445673D01*
X162958863Y-98444797D01*
X162995681Y-98445673D01*
G37*
M02*
